<svg xmlns="http://www.w3.org/2000/svg" xmlns:xlink="http://www.w3.org/1999/xlink" width="192" height="86" viewBox="0 0 192 86">
  <defs>
    <clipPath id="clip-path">
      <rect id="Rectangle_866" data-name="Rectangle 866" width="185.825" height="80.964" fill="none"/>
    </clipPath>
    <clipPath id="clip-Behavioural_Errors">
      <rect width="192" height="86"/>
    </clipPath>
  </defs>
  <g id="Behavioural_Errors" data-name="Behavioural Errors" clip-path="url(#clip-Behavioural_Errors)">
    <g id="Group_2488" data-name="Group 2488" transform="translate(4504 -15169)">
      <g id="Group_2462" data-name="Group 2462" transform="translate(-4869.842 13882.902)">
        <g id="Group_2454" data-name="Group 2454" transform="translate(372.504 1283.354)">
          <g id="Group_2433" data-name="Group 2433">
            <g id="Group_2432" data-name="Group 2432" transform="translate(0 -0.355)">
              <g id="Group_2423" data-name="Group 2423">
                <g id="Group_2421" data-name="Group 2421" transform="translate(-498.662 -1274.901)">
                  <g id="Group_2422" data-name="Group 2422" transform="translate(495 1281)">
                    <g id="Group_2421-2" data-name="Group 2421" clip-path="url(#clip-path)">
                      <path id="Path_1895" data-name="Path 1895" d="M76.474,55.392a70.6,70.6,0,0,1,15.105-10.97L80.983,23.6A94.034,94.034,0,0,0,59.955,38.874Z" transform="translate(-32.108 -12.64)" fill="#56af1c"/>
                      <path id="Path_1896" data-name="Path 1896" d="M111.6,11.078,122.2,31.9a69.905,69.905,0,0,1,18.045-5.824L136.4,3.041a93.155,93.155,0,0,0-24.8,8.037" transform="translate(-59.766 -1.629)" fill="#91ad1e"/>
                      <path id="Path_1897" data-name="Path 1897" d="M282,23.26,271.4,44.078a70.6,70.6,0,0,1,15.207,10.947L303.129,38.5A94.033,94.033,0,0,0,282,23.26" transform="translate(-145.345 -12.457)" fill="#f8492c"/>
                      <path id="Path_1898" data-name="Path 1898" d="M226.8,26.071a69.938,69.938,0,0,1,17.75,5.678l10.6-20.819a93.108,93.108,0,0,0-24.508-7.893Z" transform="translate(-121.458 -1.627)" fill="#f46c31"/>
                      <path id="Path_1899" data-name="Path 1899" d="M325.745,61.127,309.231,77.641a70.592,70.592,0,0,1,11.1,15.09l20.861-10.539a94.013,94.013,0,0,0-15.443-21.065" transform="translate(-165.604 -32.736)" fill="#f82f4a"/>
                      <path id="Path_1900" data-name="Path 1900" d="M8.643,113.172A93.039,93.039,0,0,0,0,141.571H23.654A69.825,69.825,0,0,1,29.5,123.709Z" transform="translate(0 -60.608)" fill="#17953f"/>
                      <path id="Path_1901" data-name="Path 1901" d="M42.737,93.1A70.576,70.576,0,0,1,53.728,78.056L37.212,61.541A94,94,0,0,0,21.877,82.565Z" transform="translate(-11.716 -32.957)" fill="#1bb04b"/>
                      <path id="Path_1902" data-name="Path 1902" d="M336.406,123.379a69.852,69.852,0,0,1,5.922,18.016h23.653a93.027,93.027,0,0,0-8.719-28.552Z" transform="translate(-180.157 -60.431)" fill="#d6253d"/>
                      <path id="Path_1903" data-name="Path 1903" d="M175.913,23.942a70.978,70.978,0,0,1,18.292,0L198.044.892a94.871,94.871,0,0,0-25.971,0Z" transform="translate(-92.151)" fill="#f7d131"/>
                    </g>
                  </g>
                </g>
              </g>
            </g>
          </g>
        </g>
      </g>
      <g id="Group_2466" data-name="Group 2466">
        <line id="Line_130" data-name="Line 130" y1="52.463" x2="23.588" transform="translate(-4408.088 15194.5)" fill="none" stroke="#152a4a" stroke-width="3"/>
        <circle id="Ellipse_43" data-name="Ellipse 43" cx="6" cy="6" r="6" transform="translate(-4415 15241)" fill="#152a4a"/>
      </g>
    </g>
  </g>
</svg>
