
<svg width="202" height="28" viewBox="0 0 202 28" fill="none" xmlns="http://www.w3.org/2000/svg">
	<g clip-path="url(#clip0_5128_2954)">
		<path d="M98.7408 14.8651C99.5231 14.0661 99.9418 12.9933 99.8977 11.8768C99.8756 9.29345 97.8153 7.54203 94.7854 7.54203C92.4386 7.52014 90.1909 8.5491 88.6925 10.3552C87.2712 12.0519 86.5109 14.1974 86.544 16.4086C86.5991 20.2398 88.9018 22.4619 92.8793 22.4619C93.8268 22.4619 96.2067 22.3634 98.1899 21.3673L98.2891 21.3125L97.9145 18.0067L97.7161 18.1053C96.5152 18.6964 95.193 18.9919 93.8599 18.981C92.681 18.981 91.7775 18.6307 91.2486 17.963C91.0173 17.6017 90.885 17.1967 90.852 16.7698C94.7854 16.8574 97.3636 16.2334 98.7408 14.8651ZM91.2266 13.4531C91.5792 12.1395 92.6259 10.8697 94.3116 10.8697C95.16 10.8697 95.6888 11.2638 95.6888 11.9096C95.6999 12.1833 95.5897 12.4569 95.3914 12.654C94.8625 13.2013 93.5293 13.4531 91.2266 13.4531Z" fill="#19222E"/>
		<path d="M88.5525 7.88137H82.8122L79.1542 12.1395C78.8016 12.5883 78.4491 13.0152 78.1516 13.4093L80.278 1.56532L75.2649 3.38242L71.9595 22.0022L71.9375 22.1773H76.6201L77.4244 17.7221L78.6033 16.5509L80.9391 22.1773H86.6794L82.3384 13.7377L88.5525 7.88137Z" fill="#19222E"/>
		<path d="M19.2051 7.55298C17.5194 7.57487 15.9218 8.33017 14.842 9.62184L15.0403 7.85948H11.2281L7.69141 27.8256L12.4291 26.107L13.1783 21.9474C13.9936 22.3087 14.8751 22.4838 15.7565 22.4729C20.968 22.4729 23.9979 17.6455 23.9538 12.9933C23.9097 9.68752 22.0587 7.55298 19.2051 7.55298ZM15.5692 19.0795C14.9302 19.1014 14.3021 18.8825 13.8174 18.4774L14.2911 15.5657C14.7429 12.9495 16.0981 11.1872 17.5965 11.1872C19.0949 11.1872 19.2712 12.8291 19.2712 13.3327C19.3263 15.9926 17.7177 19.0795 15.5692 19.0795Z" fill="#19222E"/>
		<path d="M9.35419 11.3842L9.98221 7.87042H7.22773L7.32689 7.32311C7.44809 6.60065 7.93288 4.95869 9.65167 4.95869C9.92712 4.95869 10.2026 4.98059 10.478 5.03532L11.1281 1.37924C10.5992 1.29167 10.0593 1.25883 9.51945 1.25883C7.98797 1.25883 6.50055 1.77331 5.28859 2.70375C3.83422 3.91879 2.88669 5.61547 2.61124 7.47635L2.53411 7.90326H0.683109L0.0550894 11.3842H1.90609L0 22.1883H4.71566L6.62175 11.3842H9.35419Z" fill="#19222E"/>
		<path d="M61.3925 13.7705C61.745 11.7564 61.4696 10.2129 60.5881 9.1402C59.6847 8.08935 58.1862 7.54203 56.1259 7.54203C54.1317 7.52014 52.1595 7.9361 50.3635 8.78992L50.2644 8.84465L50.617 11.9753L50.8153 11.8768C52.0493 11.22 53.4265 10.8588 54.8258 10.8369C55.7513 10.8369 56.3793 11.0339 56.7099 11.4061C56.9302 11.7016 57.0184 12.0848 56.9302 12.446L56.9082 12.5226C51.6416 12.5226 48.2922 14.5149 47.6642 17.9958C47.4438 19.1123 47.7193 20.2617 48.4134 21.1593C49.2177 22.0459 50.3856 22.5276 51.5976 22.4729C53.1731 22.4948 54.7046 21.9255 55.8835 20.8856V22.1773H59.9161L61.3925 13.7705ZM56.2581 16.9121C56.214 17.1529 56.1479 17.3828 56.0598 17.6127C55.586 18.5212 54.6605 19.1014 53.6248 19.1342C53.2282 19.1561 52.8316 19.0138 52.5451 18.7402C52.3137 18.4337 52.2476 18.0396 52.3468 17.6674C52.6002 16.2991 53.9995 15.5767 56.5115 15.5767L56.2581 16.9121Z" fill="#19222E"/>
		<path d="M107.819 18.6307L107.665 18.6526C107.291 18.6964 106.916 18.7073 106.541 18.7073C106.035 18.7839 105.572 18.4337 105.495 17.9411C105.484 17.8535 105.484 17.7769 105.495 17.6893C105.517 17.1091 105.583 16.518 105.693 15.9488L106.574 11.3185H109.131L109.737 7.91421H107.202L107.908 4.02825L103.247 5.72494L102.85 7.91421H101.043L100.438 11.3185H102.211L101.209 16.726C101.021 17.5908 100.944 18.4774 100.955 19.3641C100.977 21.3344 102.41 22.5276 104.812 22.5276C105.616 22.5385 106.42 22.44 107.191 22.232L107.819 18.6307Z" fill="#19222E"/>
		<path d="M116.24 13.4312C115.083 12.8839 114.587 12.4351 114.587 11.9644C114.587 11.3185 115.259 10.8916 116.262 10.8916C117.22 10.8807 118.157 11.0996 119.016 11.5156L119.17 11.5922L119.776 8.18787C118.686 7.7719 117.529 7.57487 116.372 7.61866C112.637 7.61866 110.059 9.66562 110.081 12.5664C110.103 14.1317 111.16 15.4234 113.21 16.4195C114.609 17.0873 114.884 17.5689 114.917 18.0834C114.917 18.7511 114.289 19.1999 113.287 19.1999C112.02 19.1342 110.786 18.8058 109.651 18.2585L109.497 18.1819L108.891 21.6409C110.147 22.2539 111.546 22.5714 112.945 22.5385C117.033 22.5385 119.534 20.601 119.479 17.4594C119.49 15.3139 117.76 14.1755 116.24 13.4312Z" fill="#19222E"/>
		<path d="M46.232 8.82276C45.4607 7.96894 44.3479 7.5092 43.2021 7.57487C42.1994 7.56393 41.2078 7.80475 40.3264 8.27544C39.5772 8.6914 38.9051 9.21683 38.3211 9.84077C37.8694 8.41774 36.5473 7.57487 34.7844 7.57487C33.0436 7.55298 31.3799 8.29733 30.223 9.589L30.6527 7.14796L26.3447 8.71329L23.9648 22.1773H28.5483L30.0247 13.8909C30.0798 13.5297 30.201 13.1685 30.3773 12.851C30.7739 12.1286 31.5562 11.3623 32.5588 11.3623C32.9554 11.3404 33.3411 11.4937 33.6055 11.7892C33.9801 12.238 34.0793 13.059 33.903 14.1536L32.4266 22.1883H37.01L38.4864 13.869C38.5525 13.4968 38.6627 13.1356 38.839 12.7963C39.2356 11.9644 40.062 11.4061 40.9875 11.3514C41.3951 11.3295 41.7808 11.4827 42.0672 11.7783C42.4639 12.249 42.563 13.1247 42.3427 14.3616L40.9654 22.1554H45.5489L47.0253 13.7924C47.4109 11.6031 47.1355 9.8955 46.232 8.82276Z" fill="#19222E"/>
		<path d="M73.466 7.6296C73.1465 7.58582 72.827 7.56393 72.5185 7.57487C70.7556 7.68434 69.169 8.64761 68.2876 10.1582L68.8165 7.16986L64.4424 8.74613L62.0625 22.1883H66.7451L68.0232 14.9746C68.0783 14.6462 68.1554 14.3288 68.2766 14.0332C68.7944 12.7087 70.1056 11.8549 71.5379 11.9206C71.9125 11.9206 72.2871 11.9534 72.6617 12.0191L72.816 12.041L73.5872 7.66244L73.466 7.6296Z" fill="#19222E"/>
		<path d="M128.589 22.0131C128.886 21.7942 129.162 21.5862 129.47 21.3892C129.701 21.214 130.197 20.8419 130.197 20.8419C140.345 13.1466 142.295 7.42162 143.826 0.131351C139.265 11.5046 132.379 14.8432 128.699 17.2843C126.286 14.5805 125.559 10.7712 126.815 7.37784C127.784 4.83828 129.779 2.82415 132.324 1.82804C128.633 2.64901 125.592 5.25424 124.259 8.76802C122.474 13.661 124.248 19.1233 128.567 22.0569C128.556 22.035 128.567 22.0131 128.589 22.0131Z" fill="#19222E"/>
		<path d="M146.568 14.7228C145.114 18.4227 141.588 20.9075 137.6 21.0498C140.101 17.3938 145.841 10.8916 143.968 0.120405C143.362 9.08547 140.486 13.8362 133.6 20.5025C132.774 21.3016 131.892 22.1226 130.945 22.9873C130.857 23.064 130.769 23.1515 130.691 23.2391C130.879 23.3267 131.066 23.4033 131.264 23.458C137.379 25.7458 144.122 22.8341 146.326 16.9887C146.811 15.719 147.053 14.3616 147.031 13.0043C146.921 13.5844 146.778 14.1646 146.568 14.7228Z" fill="#19222E"/>
		<path d="M159.871 26.7529C159.739 26.7529 159.629 26.6434 159.629 26.5121V1.41207C159.629 1.28071 159.739 1.17125 159.871 1.17125C160.004 1.17125 160.114 1.28071 160.114 1.41207V26.5121C160.103 26.6434 160.004 26.7529 159.871 26.7529Z" fill="#19222E"/>
		<path d="M175.581 24.3009H175.526L174.094 21.619H172.617L174.898 25.6364V27.8366H176.209V25.6364L178.49 21.619H177.013L175.581 24.3009Z" fill="#19222E"/>
		<path d="M180.748 25.2751H183.425V24.1805H180.748V22.7027H183.646V21.619H179.426V27.8366H183.657V26.7529H180.748V25.2751Z" fill="#19222E"/>
		<path d="M186.742 21.619L184.582 27.8366H186.003L186.466 26.4136H188.725L189.188 27.8366H190.609L188.449 21.619H186.742ZM186.797 25.3955L187.568 23.0421H187.612L188.383 25.3955H186.797Z" fill="#19222E"/>
		<path d="M195.235 25.3955C195.577 25.2423 195.83 25.0124 196.018 24.7169C196.194 24.4213 196.282 24.0601 196.282 23.6551C196.282 23.2501 196.194 22.8888 196.018 22.5823C195.841 22.2758 195.588 22.046 195.246 21.8708C194.916 21.7066 194.508 21.619 194.034 21.619H191.566V27.8366H192.889V25.6364H193.858L195.048 27.8366H196.513L195.18 25.4174C195.191 25.4174 195.213 25.4065 195.235 25.3955ZM192.889 22.6918H193.781C194.034 22.6918 194.244 22.7246 194.42 22.8013C194.596 22.8779 194.718 22.9873 194.795 23.1296C194.883 23.2719 194.916 23.4471 194.916 23.6551C194.916 23.8631 194.872 24.0272 194.795 24.1695C194.718 24.3119 194.585 24.4104 194.42 24.476C194.255 24.5417 194.045 24.5746 193.792 24.5746H192.889V22.6918Z" fill="#19222E"/>
		<path d="M202.037 25.3736C201.949 25.1766 201.816 25.0015 201.651 24.8482C201.486 24.695 201.288 24.5746 201.056 24.476C200.825 24.3775 200.582 24.29 200.307 24.2352L199.745 24.1039C199.613 24.071 199.481 24.0382 199.359 23.9944C199.238 23.9506 199.128 23.8959 199.04 23.8412C198.952 23.7864 198.875 23.7098 198.82 23.6222C198.764 23.5347 198.742 23.4471 198.742 23.3267C198.742 23.1953 198.786 23.0749 198.864 22.9654C198.941 22.856 199.051 22.7794 199.205 22.7137C199.348 22.659 199.536 22.6261 199.756 22.6261C200.076 22.6261 200.329 22.6918 200.505 22.8341C200.693 22.9655 200.792 23.1625 200.825 23.4033H202.092C202.081 23.0311 201.982 22.7027 201.794 22.4291C201.607 22.1554 201.332 21.9255 200.979 21.7723C200.626 21.619 200.23 21.5315 199.756 21.5315C199.282 21.5315 198.897 21.6081 198.533 21.7723C198.169 21.9255 197.894 22.1554 197.685 22.4291C197.475 22.7137 197.376 23.0421 197.376 23.4142C197.376 23.874 197.53 24.2352 197.828 24.5089C198.136 24.7825 198.555 24.9796 199.073 25.1109L199.756 25.2751C199.987 25.3299 200.175 25.3955 200.34 25.4612C200.494 25.5269 200.615 25.6145 200.704 25.702C200.792 25.7896 200.825 25.91 200.825 26.0523C200.825 26.2056 200.781 26.3369 200.693 26.4464C200.604 26.5559 200.472 26.6544 200.307 26.72C200.142 26.7857 199.943 26.8186 199.723 26.8186C199.503 26.8186 199.293 26.7857 199.106 26.7091C198.93 26.6434 198.787 26.534 198.676 26.3917C198.566 26.2494 198.511 26.0742 198.489 25.8662H197.211C197.222 26.315 197.332 26.6872 197.541 26.9937C197.751 27.3002 198.037 27.5301 198.412 27.6724C198.787 27.8147 199.227 27.9023 199.734 27.9023C200.241 27.9023 200.682 27.8256 201.045 27.6724C201.409 27.5191 201.684 27.3002 201.883 27.0265C202.081 26.7529 202.169 26.4245 202.18 26.0414C202.18 25.8006 202.136 25.5707 202.037 25.3736Z" fill="#19222E"/>
		<path d="M185.155 2.60523C184.615 1.7952 183.844 1.14937 182.863 0.689619C181.883 0.229872 180.737 0 179.415 0C178.092 0 177.002 0.240819 176.021 0.722458C175.041 1.2041 174.269 1.88277 173.729 2.76943C173.19 3.65608 172.914 4.69598 172.914 5.88914H176.605C176.605 5.30898 176.715 4.80545 176.947 4.37854C177.178 3.95163 177.498 3.63419 177.916 3.40431C178.335 3.17444 178.831 3.06498 179.393 3.06498C179.954 3.06498 180.417 3.17444 180.836 3.38242C181.255 3.5904 181.596 3.8969 181.839 4.28002C182.081 4.67409 182.202 5.13384 182.202 5.67021C182.202 6.15185 182.103 6.60065 181.905 7.01661C181.706 7.43257 181.42 7.84853 181.034 8.28639C180.649 8.72424 180.186 9.19494 179.624 9.73131L173.068 15.7627V18.5541H180.098L183.017 15.3906H178.467V15.2702L181.155 12.654C182.423 11.5046 183.403 10.5304 184.097 9.70941C184.791 8.88844 185.276 8.14409 185.552 7.47636C185.827 6.80863 185.959 6.11901 185.959 5.42939C185.97 4.35665 185.695 3.41526 185.155 2.60523Z" fill="#19222E"/>
		<path d="M199.302 1.10558C198.189 0.361229 196.867 0 195.324 0C193.782 0 192.459 0.372175 191.347 1.10558C190.234 1.83899 189.385 2.91173 188.779 4.31286C188.173 5.714 187.887 7.42163 187.887 9.41386C187.876 11.417 188.173 13.1247 188.768 14.5477C189.363 15.9707 190.223 17.0544 191.336 17.8097C192.437 18.5541 193.738 18.9262 195.269 18.9372V15.7299C194.597 15.719 194.002 15.4891 193.495 15.0293C192.977 14.5586 192.57 13.8581 192.283 12.9167C191.997 11.9753 191.853 10.8041 191.853 9.40292C191.864 7.32311 192.173 5.76873 192.812 4.71788C193.44 3.67797 194.277 3.15255 195.324 3.15255C196.029 3.15255 196.635 3.38242 197.153 3.85312C197.671 4.32381 198.068 5.01343 198.354 5.93292C198.497 6.38172 198.596 6.8962 198.674 7.46541L201.781 4.10488C201.186 2.81321 200.359 1.80615 199.302 1.10558Z" fill="#19222E"/>
		<path d="M186.212 15.3796H183.027V18.5431H186.212V15.3796Z" fill="#19222E"/>
		<path d="M201.86 7.47636H198.676V10.6399H201.86V7.47636Z" fill="#19222E"/>
	</g>
	<defs>
		<clipPath id="clip0_5128_2954">
			<rect width="202" height="28" fill="white"/>
		</clipPath>
	</defs>
</svg>
