<svg xmlns="http://www.w3.org/2000/svg" xmlns:xlink="http://www.w3.org/1999/xlink" width="115" height="115" viewBox="0 0 115 115">
  <defs>
    <clipPath id="clip-path">
      <rect id="Rectangle_864" data-name="Rectangle 864" width="61.033" height="61.16" transform="translate(0 0)" fill="none"/>
    </clipPath>
    <clipPath id="clip-FOMO_">
      <rect width="115" height="115"/>
    </clipPath>
  </defs>
  <g id="FOMO_" data-name="FOMO " clip-path="url(#clip-FOMO_)">
    <g id="Group_2502" data-name="Group 2502" transform="translate(-675 -5564)">
      <circle id="Ellipse_31" data-name="Ellipse 31" cx="55" cy="55" r="55" transform="translate(678 5567)" fill="rgba(65,184,234,0.1)"/>
      <g id="Group_2410" data-name="Group 2410" transform="translate(702 5591)">
        <g id="Group_2409" data-name="Group 2409" clip-path="url(#clip-path)">
          <path id="Path_1890" data-name="Path 1890" d="M12.057,18.61H29.972a15.779,15.779,0,0,0,.872,2.939l-4.868,6.259A.981.981,0,0,0,27,29.356l4.642-1.264V48.005H12.057V41.687l5.975-3.731a3.954,3.954,0,0,0-3.5-7.053l-2.468,1.136V18.62Zm0-2.938a.983.983,0,0,1,.98-.98h16.7c-.019.324-.049.647-.049.98s.03.656.049.979H12.057ZM45.36,1.959a13.713,13.713,0,1,1-9.618,23.479.961.961,0,0,0-.686-.285.721.721,0,0,0-.255.04l-5.475,1.488,3.418-4.388a.97.97,0,0,0,.118-1A13.7,13.7,0,0,1,45.36,1.959M31.647,50.934a.982.982,0,0,1-.979.98H13.037a.983.983,0,0,1-.98-.98v-.979h19.59ZM5.573,47.4a4.912,4.912,0,0,0,.607-2.38V38.759A2.939,2.939,0,0,1,7.9,36.085l7.366-3.38a1.956,1.956,0,0,1,1.822.245,1.976,1.976,0,0,1,.852,1.636A2.042,2.042,0,0,1,17,36.281l-6.436,4.025a.979.979,0,0,0-.46.833v9.795a2.948,2.948,0,0,0,2.939,2.939h4.29l-3.213,6.415,1.753.872,3.644-7.3H30.668a2.947,2.947,0,0,0,2.938-2.939V27.543l1.176-.323a15.666,15.666,0,1,0-4.81-14.487H13.037A2.948,2.948,0,0,0,10.1,15.672V32.921L7.091,34.3a4.9,4.9,0,0,0-2.87,4.457v6.259a3.012,3.012,0,0,1-.362,1.43L0,53.393l1.714.95Z" fill="#00bdff"/>
          <path id="Path_1891" data-name="Path 1891" d="M45.361,16.651a.981.981,0,0,0,.979-.979V7.895a7.837,7.837,0,1,1-8.756,8.756Zm0,8.816a9.795,9.795,0,0,0,0-19.59.982.982,0,0,0-.979.979v7.836H36.545a.983.983,0,0,0-.979.98,9.811,9.811,0,0,0,9.795,9.795" fill="#00bdff"/>
          <path id="Path_1892" data-name="Path 1892" d="M38.465,11.94,36.741,11a9.336,9.336,0,0,0-.735,1.733l1.871.588a7.142,7.142,0,0,1,.588-1.381" fill="#00bdff"/>
          <path id="Path_1893" data-name="Path 1893" d="M40.375,9.619,39.131,8.111A9.979,9.979,0,0,0,37.8,9.443l1.508,1.244a7.868,7.868,0,0,1,1.068-1.068" fill="#00bdff"/>
          <path id="Path_1894" data-name="Path 1894" d="M43.01,8.189l-.588-1.871a9.269,9.269,0,0,0-1.733.735l.94,1.724a7.917,7.917,0,0,1,1.391-.588Z" fill="#00bdff"/>
        </g>
      </g>
    </g>
  </g>
</svg>
