<svg xmlns="http://www.w3.org/2000/svg" xmlns:xlink="http://www.w3.org/1999/xlink" width="115" height="115" viewBox="0 0 115 115">
  <defs>
    <clipPath id="clip-path">
      <rect id="Rectangle_863" data-name="Rectangle 863" width="66.26" height="57" fill="none"/>
    </clipPath>
    <clipPath id="clip-Over-complexity">
      <rect width="115" height="115"/>
    </clipPath>
  </defs>
  <g id="Over-complexity" clip-path="url(#clip-Over-complexity)">
    <g id="Group_2501" data-name="Group 2501" transform="translate(-1300 -5170)">
      <circle id="Ellipse_31" data-name="Ellipse 31" cx="55" cy="55" r="55" transform="translate(1303 5173)" fill="rgba(65,184,234,0.1)"/>
      <g id="Group_2408" data-name="Group 2408" transform="translate(1325 5200)">
        <g id="Group_2407" data-name="Group 2407" clip-path="url(#clip-path)">
          <path id="Path_1877" data-name="Path 1877" d="M43.37,31.513a1,1,0,0,1-.711-.3L36.85,25.409l-1.323,1.323A1.006,1.006,0,0,1,34.1,25.31l2.034-2.034a1.033,1.033,0,0,1,1.422,0l5.809,5.809,11.439-11.44a1.006,1.006,0,0,1,1.423,0l1.57,1.571,1.019-7.575-7.576,1.018,1.571,1.571a1,1,0,0,1,0,1.422l-8.735,8.735a1.035,1.035,0,0,1-1.422,0L36.85,18.578l-.762.762a1.006,1.006,0,1,1-1.423-1.422l1.473-1.474a1.036,1.036,0,0,1,1.423,0l5.809,5.809,7.312-7.312-2.3-2.3a1.006,1.006,0,0,1,.577-1.708l10.9-1.465A1.006,1.006,0,0,1,60.99,10.6L59.525,21.5a1.006,1.006,0,0,1-1.708.577l-2.3-2.3L44.081,31.218a1,1,0,0,1-.711.3" fill="#00bdff"/>
          <path id="Path_1878" data-name="Path 1878" d="M65.255,41.3H46.883a1.006,1.006,0,1,1,0-2.012H64.248V2.012H18.027V6.524a1.007,1.007,0,0,1-2.013,0V1.006A1.006,1.006,0,0,1,17.021,0H65.255A1.006,1.006,0,0,1,66.26,1.006V40.293A1.006,1.006,0,0,1,65.255,41.3" fill="#00bdff"/>
          <path id="Path_1879" data-name="Path 1879" d="M61.364,57H56.111a1.006,1.006,0,0,1,0-2.012h5.253a1.006,1.006,0,0,1,0,2.012" fill="#00bdff"/>
          <path id="Path_1880" data-name="Path 1880" d="M58.737,57a1.006,1.006,0,0,1-1.006-1.006v-15.7a1.006,1.006,0,0,1,2.012,0v15.7A1.006,1.006,0,0,1,58.737,57" fill="#00bdff"/>
          <path id="Path_1881" data-name="Path 1881" d="M9.287,56.775a1.006,1.006,0,0,1-1.006-1.006V50.854a1.006,1.006,0,1,1,2.012,0v4.915a1.006,1.006,0,0,1-1.006,1.006" fill="#00bdff"/>
          <path id="Path_1882" data-name="Path 1882" d="M35.758,56.775a1.006,1.006,0,0,1-1.006-1.006V50.854a1.006,1.006,0,0,1,2.012,0v4.915a1.006,1.006,0,0,1-1.006,1.006" fill="#00bdff"/>
          <path id="Path_1883" data-name="Path 1883" d="M44.04,56.775H1.006A1,1,0,0,1,0,55.77V47.276a6.953,6.953,0,0,1,4.836-6.638L17.59,36.521a1.006,1.006,0,1,1,.618,1.915L5.453,42.553a4.947,4.947,0,0,0-3.441,4.723v7.487H43.034V47.276a4.947,4.947,0,0,0-3.441-4.723L26.837,38.436a1.006,1.006,0,0,1,.618-1.915L40.21,40.638a6.954,6.954,0,0,1,4.836,6.638V55.77a1,1,0,0,1-1.006,1.005" fill="#00bdff"/>
          <path id="Path_1884" data-name="Path 1884" d="M22.523,44.986c-5.172,0-9.223-2.642-9.223-6.015a1.006,1.006,0,1,1,2.012,0c0,2.17,3.3,4,7.211,4s7.211-1.833,7.211-4a1.006,1.006,0,1,1,2.012,0c0,3.373-4.051,6.015-9.223,6.015" fill="#00bdff"/>
          <path id="Path_1885" data-name="Path 1885" d="M27.146,38.484a1.006,1.006,0,0,1-1.006-1.006V36.7a1.006,1.006,0,0,1,2.012,0v.781a1.006,1.006,0,0,1-1.006,1.006" fill="#00bdff"/>
          <path id="Path_1886" data-name="Path 1886" d="M17.9,38.484a1.006,1.006,0,0,1-1.006-1.006V36.7a1.006,1.006,0,0,1,2.012,0v.781A1.006,1.006,0,0,1,17.9,38.484" fill="#00bdff"/>
          <path id="Path_1887" data-name="Path 1887" d="M22.523,34.985c-4.673,0-8.009-3.342-9.434-9.427-1.048-.786-1.3-3.012-1.3-3.978,0-2.873,1.783-3.019,2.14-3.019a1.549,1.549,0,0,1,.836.251,1.006,1.006,0,0,1-.821,1.816,2.322,2.322,0,0,0-.143.952,5.657,5.657,0,0,0,.455,2.287,1.006,1.006,0,0,1,.69.755c.8,3.81,2.771,8.351,7.581,8.351S29.3,28.431,30.1,24.622a1.01,1.01,0,0,1,.69-.755,5.653,5.653,0,0,0,.456-2.287,2.315,2.315,0,0,0-.144-.952,1.006,1.006,0,0,1-.822-1.815,1.545,1.545,0,0,1,.837-.252c.357,0,2.14.146,2.14,3.019,0,.966-.256,3.192-1.3,3.978-1.425,6.085-4.761,9.427-9.434,9.427" fill="#00bdff"/>
          <path id="Path_1888" data-name="Path 1888" d="M31.613,20.7A1.006,1.006,0,0,1,30.607,19.7v-8.22L19,11.474a4.56,4.56,0,0,0-4.56,4.56V19.7a1.006,1.006,0,1,1-2.012,0V16.034A6.572,6.572,0,0,1,19,9.462h0l12.614,0a1.006,1.006,0,0,1,1.006,1.006V19.7A1.006,1.006,0,0,1,31.613,20.7" fill="#00bdff"/>
          <path id="Path_1889" data-name="Path 1889" d="M13.432,20.055a1.006,1.006,0,0,1-1.006-1.006V18.59a3.6,3.6,0,0,1,3.6-3.6.945.945,0,0,0,.807-.447l.284-.457a1.007,1.007,0,0,1,.849-.474,1.047,1.047,0,0,1,.853.466l.3.472a.946.946,0,0,0,.8.44h7.95a1.006,1.006,0,1,1,0,2.012h-7.95a2.952,2.952,0,0,1-1.948-.728A2.946,2.946,0,0,1,16.025,17a1.589,1.589,0,0,0-1.587,1.587v.459a1.006,1.006,0,0,1-1.006,1.006" fill="#00bdff"/>
        </g>
      </g>
    </g>
  </g>
</svg>
