<svg xmlns="http://www.w3.org/2000/svg" xmlns:xlink="http://www.w3.org/1999/xlink" width="115" height="115" viewBox="0 0 115 115">
  <defs>
    <clipPath id="clip-path">
      <rect id="Rectangle_862" data-name="Rectangle 862" width="69.644" height="54.789" fill="none"/>
    </clipPath>
    <clipPath id="clip-Risk_Management">
      <rect width="115" height="115"/>
    </clipPath>
  </defs>
  <g id="Risk_Management" data-name="Risk Management" clip-path="url(#clip-Risk_Management)">
    <g id="Group_2500" data-name="Group 2500" transform="translate(-902 -5170)">
      <circle id="Ellipse_31" data-name="Ellipse 31" cx="55" cy="55" r="55" transform="translate(905 5173)" fill="rgba(65,184,234,0.1)"/>
      <g id="Group_2406" data-name="Group 2406" transform="translate(925.661 5200.307)">
        <g id="Group_2405" data-name="Group 2405" transform="translate(0 0)" clip-path="url(#clip-path)">
          <path id="Path_1875" data-name="Path 1875" d="M35.8,53.9H3.78a2.8,2.8,0,0,1-2.8-2.8V3.78a2.8,2.8,0,0,1,2.8-2.8H56.951a2.8,2.8,0,0,1,2.8,2.8V24.414" transform="translate(-0.045 -0.045)" fill="none" stroke="#00bdff" stroke-linecap="round" stroke-linejoin="round" stroke-width="1.967"/>
          <line id="Line_116" data-name="Line 116" x1="58.762" transform="translate(0.939 11.114)" fill="none" stroke="#00bdff" stroke-linecap="round" stroke-linejoin="round" stroke-width="1.967"/>
          <line id="Line_117" data-name="Line 117" x2="1.272" transform="translate(7.553 6.535)" fill="none" stroke="#00bdff" stroke-linecap="round" stroke-linejoin="round" stroke-width="1.967"/>
          <line id="Line_118" data-name="Line 118" x2="1.272" transform="translate(13.912 6.535)" fill="none" stroke="#00bdff" stroke-linecap="round" stroke-linejoin="round" stroke-width="1.967"/>
          <line id="Line_119" data-name="Line 119" x2="1.272" transform="translate(20.272 6.535)" fill="none" stroke="#00bdff" stroke-linecap="round" stroke-linejoin="round" stroke-width="1.967"/>
          <rect id="Rectangle_858" data-name="Rectangle 858" width="6.126" height="7.606" transform="translate(6.08 37.726)" fill="none" stroke="#00bdff" stroke-linecap="round" stroke-linejoin="round" stroke-width="1.967"/>
          <line id="Line_120" data-name="Line 120" y1="2.434" transform="translate(9.143 45.332)" fill="none" stroke="#00bdff" stroke-linecap="round" stroke-linejoin="round" stroke-width="1.967"/>
          <line id="Line_121" data-name="Line 121" y1="2.434" transform="translate(9.143 35.293)" fill="none" stroke="#00bdff" stroke-linecap="round" stroke-linejoin="round" stroke-width="1.967"/>
          <rect id="Rectangle_859" data-name="Rectangle 859" width="6.126" height="11.2" transform="translate(18.414 26.199)" fill="none" stroke="#00bdff" stroke-linecap="round" stroke-linejoin="round" stroke-width="1.967"/>
          <line id="Line_122" data-name="Line 122" y1="3.584" transform="translate(21.477 37.398)" fill="none" stroke="#00bdff" stroke-linecap="round" stroke-linejoin="round" stroke-width="1.967"/>
          <line id="Line_123" data-name="Line 123" y1="3.584" transform="translate(21.477 22.614)" fill="none" stroke="#00bdff" stroke-linecap="round" stroke-linejoin="round" stroke-width="1.967"/>
          <rect id="Rectangle_860" data-name="Rectangle 860" width="6.126" height="7.606" transform="translate(31.602 33.297)" fill="none" stroke="#00bdff" stroke-linecap="round" stroke-linejoin="round" stroke-width="1.967"/>
          <line id="Line_124" data-name="Line 124" y1="2.434" transform="translate(34.665 40.904)" fill="none" stroke="#00bdff" stroke-linecap="round" stroke-linejoin="round" stroke-width="1.967"/>
          <line id="Line_125" data-name="Line 125" y1="2.434" transform="translate(34.665 30.864)" fill="none" stroke="#00bdff" stroke-linecap="round" stroke-linejoin="round" stroke-width="1.967"/>
          <rect id="Rectangle_861" data-name="Rectangle 861" width="6.126" height="6.516" transform="translate(43.083 20.014)" fill="none" stroke="#00bdff" stroke-linecap="round" stroke-linejoin="round" stroke-width="1.967"/>
          <line id="Line_126" data-name="Line 126" y1="2.086" transform="translate(46.145 26.53)" fill="none" stroke="#00bdff" stroke-linecap="round" stroke-linejoin="round" stroke-width="1.967"/>
          <line id="Line_127" data-name="Line 127" y1="2.086" transform="translate(46.145 17.929)" fill="none" stroke="#00bdff" stroke-linecap="round" stroke-linejoin="round" stroke-width="1.967"/>
          <path id="Path_1876" data-name="Path 1876" d="M60.392,33.336,70.3,50.494a3.2,3.2,0,0,1-2.772,4.8H47.713a3.2,3.2,0,0,1-2.772-4.8l9.906-17.158A3.2,3.2,0,0,1,60.392,33.336Z" transform="translate(-2.027 -1.445)" fill="none" stroke="#00bdff" stroke-linecap="round" stroke-linejoin="round" stroke-width="1.967"/>
          <line id="Line_128" data-name="Line 128" y1="9.316" transform="translate(55.635 35.727)" fill="none" stroke="#00bdff" stroke-linecap="round" stroke-linejoin="round" stroke-width="1.967"/>
          <line id="Line_129" data-name="Line 129" y1="1.017" transform="translate(55.551 48.769)" fill="none" stroke="#00bdff" stroke-linecap="round" stroke-linejoin="round" stroke-width="1.967"/>
        </g>
      </g>
    </g>
  </g>
</svg>
