<svg xmlns="http://www.w3.org/2000/svg" xmlns:xlink="http://www.w3.org/1999/xlink" width="115" height="115" viewBox="0 0 115 115">
  <defs>
    <clipPath id="clip-path">
      <rect id="Rectangle_855" data-name="Rectangle 855" width="59.882" height="58.264" transform="translate(0 0)" fill="none"/>
    </clipPath>
    <clipPath id="clip-Trade_Execution">
      <rect width="115" height="115"/>
    </clipPath>
  </defs>
  <g id="Trade_Execution" data-name="Trade Execution" clip-path="url(#clip-Trade_Execution)">
    <g id="Group_2498" data-name="Group 2498" transform="translate(-1300 -4810)">
      <circle id="Ellipse_32" data-name="Ellipse 32" cx="55" cy="55" r="55" transform="translate(1303 4813)" fill="rgba(65,184,234,0.1)"/>
      <g id="Group_2399" data-name="Group 2399" transform="translate(1328 4839.001)">
        <g id="Group_2398" data-name="Group 2398" clip-path="url(#clip-path)">
          <path id="Path_1853" data-name="Path 1853" d="M8.16,42.328H1.051A1.052,1.052,0,0,1,0,41.277V23.544a1.052,1.052,0,0,1,1.051-1.052H8.16a1.052,1.052,0,0,1,1.052,1.052V41.277A1.052,1.052,0,0,1,8.16,42.328M2.1,40.225H7.109V24.595H2.1Z" fill="#00bdff"/>
          <path id="Path_1854" data-name="Path 1854" d="M4.606,24.6a1.051,1.051,0,0,1-1.051-1.051V18.47a1.051,1.051,0,1,1,2.1,0v5.075A1.051,1.051,0,0,1,4.606,24.6" fill="#00bdff"/>
          <path id="Path_1855" data-name="Path 1855" d="M4.606,47.4a1.051,1.051,0,0,1-1.051-1.051V41.277a1.051,1.051,0,0,1,2.1,0v5.076A1.051,1.051,0,0,1,4.606,47.4" fill="#00bdff"/>
          <path id="Path_1856" data-name="Path 1856" d="M46.163,30.924H39.054A1.052,1.052,0,0,1,38,29.873V6.126a1.052,1.052,0,0,1,1.051-1.052h7.109a1.052,1.052,0,0,1,1.052,1.052V29.873a1.052,1.052,0,0,1-1.052,1.051m-6.057-2.1h5.006V7.177H40.106Z" fill="#00bdff"/>
          <path id="Path_1857" data-name="Path 1857" d="M42.609,7.178a1.051,1.051,0,0,1-1.051-1.051V1.052a1.051,1.051,0,1,1,2.1,0V6.127a1.051,1.051,0,0,1-1.051,1.051" fill="#00bdff"/>
          <path id="Path_1858" data-name="Path 1858" d="M42.609,36a1.051,1.051,0,0,1-1.051-1.051V29.874a1.051,1.051,0,1,1,2.1,0v5.075A1.051,1.051,0,0,1,42.609,36" fill="#00bdff"/>
          <path id="Path_1859" data-name="Path 1859" d="M20.828,53.189H13.719a1.051,1.051,0,0,1-1.051-1.051V34.4a1.051,1.051,0,0,1,1.051-1.052h7.109A1.052,1.052,0,0,1,21.879,34.4V52.138a1.052,1.052,0,0,1-1.051,1.051m-6.057-2.1h5.006V35.456H14.771Z" fill="#00bdff"/>
          <path id="Path_1860" data-name="Path 1860" d="M17.273,35.456A1.051,1.051,0,0,1,16.222,34.4V29.329a1.051,1.051,0,1,1,2.1,0V34.4a1.051,1.051,0,0,1-1.051,1.051" fill="#00bdff"/>
          <path id="Path_1861" data-name="Path 1861" d="M17.273,58.264a1.051,1.051,0,0,1-1.051-1.051V52.138a1.051,1.051,0,1,1,2.1,0v5.075a1.051,1.051,0,0,1-1.051,1.051" fill="#00bdff"/>
          <path id="Path_1862" data-name="Path 1862" d="M33.495,39.248H26.387A1.052,1.052,0,0,1,25.335,38.2V26.624a1.052,1.052,0,0,1,1.052-1.051h7.108a1.052,1.052,0,0,1,1.052,1.051V38.2a1.052,1.052,0,0,1-1.052,1.052m-6.057-2.1h5.005V27.676H27.438Z" fill="#00bdff"/>
          <path id="Path_1863" data-name="Path 1863" d="M29.941,27.676a1.051,1.051,0,0,1-1.051-1.051V21.549a1.051,1.051,0,0,1,2.1,0v5.076a1.051,1.051,0,0,1-1.051,1.051" fill="#00bdff"/>
          <path id="Path_1864" data-name="Path 1864" d="M29.941,44.323a1.051,1.051,0,0,1-1.051-1.051V38.2a1.051,1.051,0,1,1,2.1,0v5.075a1.051,1.051,0,0,1-1.051,1.051" fill="#00bdff"/>
          <path id="Path_1865" data-name="Path 1865" d="M58.831,19.234H51.722a1.05,1.05,0,0,1-1.051-1.051V6.611A1.051,1.051,0,0,1,51.722,5.56h7.109a1.052,1.052,0,0,1,1.051,1.051V18.183a1.051,1.051,0,0,1-1.051,1.051m-6.057-2.1H57.78V7.662H52.774Z" fill="#00bdff"/>
          <path id="Path_1866" data-name="Path 1866" d="M55.276,7.663a1.051,1.051,0,0,1-1.051-1.051V1.536a1.051,1.051,0,0,1,2.1,0V6.612a1.051,1.051,0,0,1-1.051,1.051" fill="#00bdff"/>
          <path id="Path_1867" data-name="Path 1867" d="M55.276,24.31a1.051,1.051,0,0,1-1.051-1.051V18.184a1.051,1.051,0,1,1,2.1,0v5.075a1.051,1.051,0,0,1-1.051,1.051" fill="#00bdff"/>
          <path id="Path_1868" data-name="Path 1868" d="M55.276,24.911a1.051,1.051,0,0,1-1.051-1.051V18.784a1.051,1.051,0,1,1,2.1,0V23.86a1.051,1.051,0,0,1-1.051,1.051" fill="#00bdff"/>
        </g>
      </g>
    </g>
  </g>
</svg>
